<mxfile host="app.diagrams.net" modified="2022-06-07T02:58:14.775Z" agent="5.0 (Windows NT 10.0; Win64; x64) AppleWebKit/537.36 (KHTML, like Gecko) Chrome/100.0.4896.160 YaBrowser/22.5.1.985 Yowser/2.5 Safari/537.36" etag="1rSLN_2eWQGYNryYCn1T" version="18.1.2" type="github">
  <diagram id="07fea595-8f29-1299-0266-81d95cde20df" name="Page-1">
    <mxGraphModel dx="2543" dy="789" grid="1" gridSize="10" guides="1" tooltips="1" connect="1" arrows="1" fold="1" page="1" pageScale="1" pageWidth="1169" pageHeight="827" background="#ffffff" math="0" shadow="0">
      <root>
        <mxCell id="0" />
        <mxCell id="1" parent="0" />
        <mxCell id="170" value="&lt;font color=&quot;#23497d&quot;&gt;IT блок&lt;/font&gt;" style="swimlane;whiteSpace=wrap;fillColor=none;swimlaneFillColor=#BAC8D3;fontColor=#2F5B7C;fontFamily=Tahoma;html=1;strokeColor=none;opacity=50;" parent="1" vertex="1">
          <mxGeometry x="-70" y="88.5" width="320" height="351.5" as="geometry">
            <mxRectangle x="20" y="20" width="80" height="23" as="alternateBounds" />
          </mxGeometry>
        </mxCell>
        <mxCell id="171" value="Техническая команда" style="whiteSpace=wrap;shadow=0;fontColor=#FFFFFF;fontFamily=Helvetica;fontStyle=0;html=1;fontSize=12;plain-purple;strokeColor=none;fillColor=#2f5b7c;gradientColor=none;spacing=6;verticalAlign=middle;" parent="170" vertex="1">
          <mxGeometry x="20" y="61.5" width="120" height="60" as="geometry" />
        </mxCell>
        <mxCell id="172" value="Команда разработки" style="whiteSpace=wrap;strokeColor=none;fillColor=#2f5b7c;shadow=0;fontColor=#FFFFFF;fontFamily=Helvetica;fontStyle=0;html=1;fontSize=12;spacing=6;verticalAlign=middle;" parent="170" vertex="1">
          <mxGeometry x="180" y="61.5" width="120" height="60" as="geometry" />
        </mxCell>
        <mxCell id="173" value="Тех лид" style="whiteSpace=wrap;strokeColor=#9673a6;fillColor=#e1d5e7;shadow=0;fontFamily=Helvetica;fontStyle=0;html=1;fontSize=12;spacing=6;verticalAlign=middle;" parent="170" vertex="1">
          <mxGeometry x="20" y="161.5" width="120" height="28.5" as="geometry" />
        </mxCell>
        <mxCell id="182" value="DevOps методология" style="whiteSpace=wrap;strokeColor=none;fillColor=#2f5b7c;shadow=0;fontColor=#FFFFFF;fontFamily=Helvetica;fontStyle=0;html=1;fontSize=12;spacing=6;verticalAlign=middle;" parent="170" vertex="1">
          <mxGeometry x="20" y="31.5" width="280" height="18.5" as="geometry" />
        </mxCell>
        <mxCell id="q-G5kUrWomw_NDkCvjXE-217" value="Инженер данных ур. 3" style="whiteSpace=wrap;strokeColor=#9673a6;fillColor=#e1d5e7;shadow=0;fontFamily=Helvetica;fontStyle=0;html=1;fontSize=12;spacing=6;verticalAlign=middle;" vertex="1" parent="170">
          <mxGeometry x="20" y="201.5" width="120" height="28.5" as="geometry" />
        </mxCell>
        <mxCell id="q-G5kUrWomw_NDkCvjXE-218" value="Разработчик ур. 3" style="whiteSpace=wrap;strokeColor=#9673a6;fillColor=#e1d5e7;shadow=0;fontFamily=Helvetica;fontStyle=0;html=1;fontSize=12;spacing=6;verticalAlign=middle;" vertex="1" parent="170">
          <mxGeometry x="20" y="241.5" width="120" height="28.5" as="geometry" />
        </mxCell>
        <mxCell id="q-G5kUrWomw_NDkCvjXE-219" value="Тим лид" style="whiteSpace=wrap;strokeColor=#9673a6;fillColor=#e1d5e7;shadow=0;fontFamily=Helvetica;fontStyle=0;html=1;fontSize=12;spacing=6;verticalAlign=middle;" vertex="1" parent="170">
          <mxGeometry x="180" y="161.5" width="120" height="28.5" as="geometry" />
        </mxCell>
        <mxCell id="q-G5kUrWomw_NDkCvjXE-220" value="Инженер данных ур. 2+" style="whiteSpace=wrap;strokeColor=#9673a6;fillColor=#e1d5e7;shadow=0;fontFamily=Helvetica;fontStyle=0;html=1;fontSize=12;spacing=6;verticalAlign=middle;" vertex="1" parent="170">
          <mxGeometry x="180" y="201.5" width="120" height="28.5" as="geometry" />
        </mxCell>
        <mxCell id="q-G5kUrWomw_NDkCvjXE-221" value="Разработчик ур. 2+" style="whiteSpace=wrap;strokeColor=#9673a6;fillColor=#e1d5e7;shadow=0;fontFamily=Helvetica;fontStyle=0;html=1;fontSize=12;spacing=6;verticalAlign=middle;" vertex="1" parent="170">
          <mxGeometry x="180" y="241.5" width="120" height="28.5" as="geometry" />
        </mxCell>
        <mxCell id="176" value="&lt;font color=&quot;#23497d&quot;&gt;Inside Sales Manager&lt;/font&gt;" style="swimlane;whiteSpace=wrap;fillColor=none;swimlaneFillColor=#BAC8D3;fontColor=#2F5B7C;fontFamily=Tahoma;html=1;strokeColor=none;opacity=25;" parent="1" vertex="1">
          <mxGeometry x="1289.5" y="247" width="160" height="650" as="geometry">
            <mxRectangle x="20" y="20" width="80" height="23" as="alternateBounds" />
          </mxGeometry>
        </mxCell>
        <mxCell id="177" value="Sales Contract" style="shape=document;whiteSpace=wrap;verticalAlign=middle;strokeColor=none;fillColor=#12aab5;shadow=0;fontColor=#FFFFFF;fontFamily=Helvetica;fontStyle=0;html=1;fontSize=12;spacing=6;spacingBottom=22;" parent="176" vertex="1">
          <mxGeometry x="20" y="50" width="120" height="80" as="geometry" />
        </mxCell>
        <mxCell id="178" value="Bills" style="shape=document;whiteSpace=wrap;verticalAlign=middle;strokeColor=none;fillColor=#12aab5;shadow=0;fontColor=#FFFFFF;fontFamily=Helvetica;fontStyle=0;html=1;fontSize=12;spacing=6;spacingBottom=22;" parent="176" vertex="1">
          <mxGeometry x="20" y="530" width="120" height="80" as="geometry" />
        </mxCell>
        <mxCell id="179" value="Cost Allocation" style="whiteSpace=wrap;strokeColor=none;fillColor=#2f5b7c;shadow=0;fontColor=#FFFFFF;fontFamily=Helvetica;fontStyle=0;html=1;fontSize=12;spacing=6;verticalAlign=middle;" parent="176" vertex="1">
          <mxGeometry x="20" y="305" width="120" height="60" as="geometry" />
        </mxCell>
        <mxCell id="180" value="&lt;font color=&quot;#23497d&quot;&gt;VP Sales&lt;/font&gt;" style="swimlane;whiteSpace=wrap;fillColor=none;swimlaneFillColor=#BAC8D3;fontColor=#2F5B7C;fontFamily=Tahoma;html=1;strokeColor=none;opacity=50;" parent="1" vertex="1">
          <mxGeometry x="1129.5" y="247" width="160" height="650" as="geometry">
            <mxRectangle x="20" y="20" width="80" height="23" as="alternateBounds" />
          </mxGeometry>
        </mxCell>
        <mxCell id="181" value="Outbound Accounting" style="whiteSpace=wrap;fillColor=#2f5b7c;strokeColor=none;shadow=0;fontColor=#FFFFFF;fontFamily=Helvetica;fontStyle=0;html=1;fontSize=12;spacing=6;verticalAlign=middle;" parent="180" vertex="1">
          <mxGeometry x="20" y="160" width="120" height="60" as="geometry" />
        </mxCell>
        <mxCell id="193" value="&lt;font color=&quot;#23497d&quot;&gt;Sales Manager&lt;/font&gt;" style="swimlane;whiteSpace=wrap;fillColor=none;swimlaneFillColor=#BAC8D3;fontColor=#2F5B7C;fontFamily=Tahoma;html=1;strokeColor=none;opacity=25;" parent="1" vertex="1">
          <mxGeometry x="969.5" y="247" width="160" height="650" as="geometry">
            <mxRectangle x="20" y="20" width="80" height="23" as="alternateBounds" />
          </mxGeometry>
        </mxCell>
        <mxCell id="194" value="Inventory Control" style="whiteSpace=wrap;strokeColor=none;fillColor=#2f5b7c;shadow=0;fontColor=#FFFFFF;fontFamily=Helvetica;fontStyle=0;html=1;fontSize=12;spacing=6;verticalAlign=middle;" parent="193" vertex="1">
          <mxGeometry x="20" y="160" width="120" height="60" as="geometry" />
        </mxCell>
        <mxCell id="195" value="Product Delivery" style="whiteSpace=wrap;strokeColor=none;fillColor=#2f5b7c;shadow=0;fontColor=#FFFFFF;fontFamily=Helvetica;fontStyle=0;html=1;fontSize=12;spacing=6;verticalAlign=middle;" parent="193" vertex="1">
          <mxGeometry x="20" y="315" width="120" height="60" as="geometry" />
        </mxCell>
        <mxCell id="196" value="Director" style="swimlane;whiteSpace=wrap;fillColor=none;swimlaneFillColor=#BAC8D3;fontColor=#2F5B7C;fontFamily=Tahoma;html=1;strokeColor=none;opacity=50;" parent="1" vertex="1">
          <mxGeometry x="1449.5" y="247" width="160" height="650" as="geometry">
            <mxRectangle x="20" y="20" width="80" height="23" as="alternateBounds" />
          </mxGeometry>
        </mxCell>
        <mxCell id="197" value="Outbounding Management" style="shape=document;whiteSpace=wrap;verticalAlign=middle;strokeColor=none;fillColor=#12aab5;shadow=0;fontColor=#FFFFFF;fontFamily=Helvetica;fontStyle=0;html=1;fontSize=12;spacing=6;spacingBottom=22;" parent="196" vertex="1">
          <mxGeometry x="20" y="130" width="120" height="80" as="geometry" />
        </mxCell>
        <mxCell id="198" value="Resources Allocation" style="whiteSpace=wrap;strokeColor=none;fillColor=#2f5b7c;shadow=0;fontColor=#FFFFFF;fontFamily=Helvetica;fontStyle=0;html=1;fontSize=12;spacing=6;verticalAlign=middle;" parent="196" vertex="1">
          <mxGeometry x="20" y="255" width="120" height="60" as="geometry" />
        </mxCell>
        <mxCell id="199" value="Long Term Strategy" style="whiteSpace=wrap;strokeColor=none;fillColor=#2f5b7c;shadow=0;fontColor=#FFFFFF;fontFamily=Helvetica;fontStyle=0;html=1;fontSize=12;spacing=6;verticalAlign=middle;" parent="196" vertex="1">
          <mxGeometry x="20" y="400" width="120" height="60" as="geometry" />
        </mxCell>
        <mxCell id="200" value="" style="edgeStyle=segmentEdgeStyle;strokeColor=#2F5B7C;strokeWidth=3;html=1;endArrow=block;endFill=1;" parent="196" source="198" target="199" edge="1">
          <mxGeometry width="100" height="100" relative="1" as="geometry">
            <mxPoint x="30" y="570" as="sourcePoint" />
            <mxPoint x="130" y="470" as="targetPoint" />
          </mxGeometry>
        </mxCell>
        <mxCell id="201" value="" style="edgeStyle=segmentEdgeStyle;entryX=0.25;entryY=0;strokeColor=#12AAB5;strokeWidth=3;html=1;endArrow=block;endFill=1;" parent="196" source="197" target="198" edge="1">
          <mxGeometry width="100" height="100" relative="1" as="geometry">
            <mxPoint x="-120" y="260" as="sourcePoint" />
            <mxPoint x="-20" y="160" as="targetPoint" />
          </mxGeometry>
        </mxCell>
        <mxCell id="202" value="" style="edgeStyle=segmentEdgeStyle;strokeColor=#2F5B7C;strokeWidth=3;html=1;endArrow=block;endFill=1;" parent="1" edge="1">
          <mxGeometry x="314.5" y="247" width="100" height="100" as="geometry">
            <mxPoint x="950" y="50" as="sourcePoint" />
            <mxPoint x="1120" y="90" as="targetPoint" />
          </mxGeometry>
        </mxCell>
        <mxCell id="203" value="" style="edgeStyle=segmentEdgeStyle;strokeColor=#12AAB5;strokeWidth=3;html=1;endArrow=block;endFill=1;" parent="1" edge="1">
          <mxGeometry x="629.5" y="592" width="100" height="100" as="geometry">
            <mxPoint x="925" y="770" as="sourcePoint" />
            <mxPoint x="945" y="510" as="targetPoint" />
            <Array as="points">
              <mxPoint x="925" y="653" />
              <mxPoint x="915" y="653" />
              <mxPoint x="915" y="479" />
              <mxPoint x="945" y="479" />
            </Array>
          </mxGeometry>
        </mxCell>
        <mxCell id="204" value="" style="edgeStyle=segmentEdgeStyle;strokeColor=#2F5B7C;strokeWidth=3;html=1;endArrow=block;endFill=1;" parent="1" edge="1">
          <mxGeometry x="1329.5" y="258.5" width="100" height="100" as="geometry">
            <mxPoint x="1525" y="150" as="sourcePoint" />
            <mxPoint x="1529.5" y="258.5" as="targetPoint" />
          </mxGeometry>
        </mxCell>
        <mxCell id="205" value="" style="edgeStyle=segmentEdgeStyle;strokeColor=#12AAB5;strokeWidth=3;html=1;endArrow=block;endFill=1;" parent="1" source="185" edge="1">
          <mxGeometry x="619.5" y="553.5" width="100" height="100" as="geometry">
            <mxPoint x="769.5" y="938.5" as="sourcePoint" />
            <mxPoint x="735" y="890" as="targetPoint" />
            <Array as="points">
              <mxPoint x="945" y="910" />
              <mxPoint x="620" y="910" />
              <mxPoint x="620" y="890" />
            </Array>
          </mxGeometry>
        </mxCell>
        <mxCell id="206" value="" style="edgeStyle=elbowEdgeStyle;elbow=vertical;strokeColor=#12AAB5;strokeWidth=3;html=1;endArrow=block;endFill=1;" parent="1" target="178" edge="1">
          <mxGeometry x="949.5" y="782" width="100" height="100" as="geometry">
            <mxPoint x="949.5" y="812.5" as="sourcePoint" />
            <mxPoint x="1109.5" y="677" as="targetPoint" />
          </mxGeometry>
        </mxCell>
        <mxCell id="208" value="" style="edgeStyle=segmentEdgeStyle;strokeColor=#12AAB5;strokeWidth=3;html=1;endArrow=block;endFill=1;" parent="1" target="194" edge="1">
          <mxGeometry x="949.5" y="337" width="100" height="100" as="geometry">
            <mxPoint x="949.5" y="337" as="sourcePoint" />
            <mxPoint x="1009.5" y="307" as="targetPoint" />
          </mxGeometry>
        </mxCell>
        <mxCell id="209" value="" style="edgeStyle=none;strokeColor=#2F5B7C;strokeWidth=3;html=1;endArrow=block;endFill=1;" parent="1" source="194" target="181" edge="1">
          <mxGeometry x="1109.5" y="437" width="100" height="100" as="geometry">
            <mxPoint x="1149.5" y="617" as="sourcePoint" />
            <mxPoint x="1249.5" y="517" as="targetPoint" />
          </mxGeometry>
        </mxCell>
        <mxCell id="210" value="" style="edgeStyle=segmentEdgeStyle;strokeColor=#12AAB5;strokeWidth=3;html=1;endArrow=block;endFill=1;" parent="1" edge="1">
          <mxGeometry x="869.5" y="552" width="100" height="100" as="geometry">
            <mxPoint x="885" y="178.5" as="sourcePoint" />
            <mxPoint x="1105" y="198.5" as="targetPoint" />
            <Array as="points">
              <mxPoint x="870" y="178.5" />
              <mxPoint x="870" y="198.5" />
            </Array>
          </mxGeometry>
        </mxCell>
        <mxCell id="211" value="" style="edgeStyle=segmentEdgeStyle;strokeColor=#2F5B7C;strokeWidth=3;html=1;endArrow=block;endFill=1;" parent="1" source="195" target="181" edge="1">
          <mxGeometry x="1109.5" y="467" width="100" height="100" as="geometry">
            <mxPoint x="1109.5" y="597" as="sourcePoint" />
            <mxPoint x="1209.5" y="497" as="targetPoint" />
          </mxGeometry>
        </mxCell>
        <mxCell id="212" value="" style="edgeStyle=segmentEdgeStyle;strokeColor=#2F5B7C;strokeWidth=3;html=1;endArrow=block;endFill=1;" parent="1" source="195" edge="1">
          <mxGeometry x="1109.5" y="592" width="100" height="100" as="geometry">
            <mxPoint x="979.5" y="747" as="sourcePoint" />
            <mxPoint x="1235" y="638.5" as="targetPoint" />
          </mxGeometry>
        </mxCell>
        <mxCell id="213" value="" style="edgeStyle=segmentEdgeStyle;strokeColor=#2F5B7C;strokeWidth=3;html=1;endArrow=block;endFill=1;" parent="1" source="181" target="177" edge="1">
          <mxGeometry x="1209.5" y="337" width="100" height="100" as="geometry">
            <mxPoint x="1329.5" y="537" as="sourcePoint" />
            <mxPoint x="1429.5" y="437" as="targetPoint" />
            <Array as="points">
              <mxPoint x="1209.5" y="337" />
            </Array>
          </mxGeometry>
        </mxCell>
        <mxCell id="214" value="" style="edgeStyle=segmentEdgeStyle;strokeColor=#2F5B7C;strokeWidth=3;html=1;endArrow=block;endFill=1;" parent="1" source="181" target="179" edge="1">
          <mxGeometry x="1269.5" y="437" width="100" height="100" as="geometry">
            <mxPoint x="1319.5" y="547" as="sourcePoint" />
            <mxPoint x="1419.5" y="447" as="targetPoint" />
          </mxGeometry>
        </mxCell>
        <mxCell id="215" value="" style="edgeStyle=segmentEdgeStyle;strokeColor=#2F5B7C;strokeWidth=3;html=1;endArrow=block;endFill=1;" parent="1" target="178" edge="1">
          <mxGeometry x="1269.5" y="697" width="100" height="100" as="geometry">
            <mxPoint x="1345" y="698.5" as="sourcePoint" />
            <mxPoint x="1449.5" y="637" as="targetPoint" />
          </mxGeometry>
        </mxCell>
        <mxCell id="216" value="" style="edgeStyle=segmentEdgeStyle;strokeColor=#2F5B7C;strokeWidth=3;html=1;endArrow=block;endFill=1;" parent="1" source="179" target="199" edge="1">
          <mxGeometry x="1429.5" y="582" width="100" height="100" as="geometry">
            <mxPoint x="1559.5" y="657" as="sourcePoint" />
            <mxPoint x="1659.5" y="557" as="targetPoint" />
          </mxGeometry>
        </mxCell>
        <mxCell id="217" value="" style="edgeStyle=segmentEdgeStyle;strokeColor=#12AAB5;strokeWidth=3;html=1;endArrow=block;endFill=1;" parent="1" source="177" target="197" edge="1">
          <mxGeometry x="1429.5" y="337" width="100" height="100" as="geometry">
            <mxPoint x="1319.5" y="507" as="sourcePoint" />
            <mxPoint x="1419.5" y="407" as="targetPoint" />
          </mxGeometry>
        </mxCell>
        <mxCell id="185" value="&lt;font color=&quot;#ffffff&quot;&gt;Facilities Procurement&lt;br&gt;Application&lt;/font&gt;&lt;br&gt; " style="shape=document;whiteSpace=wrap;verticalAlign=middle;strokeColor=none;fillColor=#12aab5;shadow=0;fontColor=#FFFFFF;fontFamily=Helvetica;fontStyle=0;html=1;fontSize=12;spacing=6;spacingBottom=22;" parent="1" vertex="1">
          <mxGeometry x="885" y="800" width="120" height="80" as="geometry" />
        </mxCell>
        <mxCell id="186" value="" style="edgeStyle=segmentEdgeStyle;strokeColor=#2F5B7C;strokeWidth=3;html=1;endArrow=block;endFill=1;" parent="1" edge="1">
          <mxGeometry width="100" height="100" relative="1" as="geometry">
            <mxPoint x="1255" y="180" as="sourcePoint" />
            <mxPoint x="875" y="770" as="targetPoint" />
          </mxGeometry>
        </mxCell>
        <mxCell id="175" value="" style="edgeStyle=segmentEdgeStyle;strokeColor=#2F5B7C;strokeWidth=3;html=1;endArrow=block;endFill=1;" parent="1" edge="1">
          <mxGeometry width="100" height="100" relative="1" as="geometry">
            <mxPoint x="830" y="20" as="sourcePoint" />
            <mxPoint x="850" y="40" as="targetPoint" />
          </mxGeometry>
        </mxCell>
        <mxCell id="174" value="" style="edgeStyle=segmentEdgeStyle;strokeColor=#2F5B7C;strokeWidth=3;html=1;endArrow=block;endFill=1;" parent="1" edge="1">
          <mxGeometry width="100" height="100" relative="1" as="geometry">
            <mxPoint x="1240" y="1060" as="sourcePoint" />
            <mxPoint x="830" y="970" as="targetPoint" />
          </mxGeometry>
        </mxCell>
        <mxCell id="q-G5kUrWomw_NDkCvjXE-231" value="Ролевая схема департамента" style="text;html=1;align=center;verticalAlign=middle;resizable=0;points=[];autosize=1;strokeColor=none;fillColor=none;" vertex="1" parent="1">
          <mxGeometry x="-70" y="60" width="180" height="20" as="geometry" />
        </mxCell>
        <mxCell id="183" value="&lt;font color=&quot;#23497d&quot;&gt;Блок управления БП&lt;/font&gt;" style="swimlane;whiteSpace=wrap;fillColor=none;swimlaneFillColor=#BAC8D3;fontColor=#2F5B7C;fontFamily=Tahoma;html=1;strokeColor=none;opacity=50;" parent="1" vertex="1">
          <mxGeometry x="260" y="88.5" width="490" height="351" as="geometry">
            <mxRectangle x="270" y="110" width="80" height="23" as="alternateBounds" />
          </mxGeometry>
        </mxCell>
        <mxCell id="184" value="Команда 1&lt;br&gt;ур. 1" style="whiteSpace=wrap;shadow=0;fontColor=#FFFFFF;fontFamily=Helvetica;fontStyle=0;html=1;fontSize=12;plain-purple;strokeColor=none;fillColor=#2f5b7c;gradientColor=none;spacing=6;verticalAlign=middle;" parent="183" vertex="1">
          <mxGeometry x="20" y="61.5" width="120" height="60" as="geometry" />
        </mxCell>
        <mxCell id="q-G5kUrWomw_NDkCvjXE-222" value="Команда 2&lt;br&gt;ур. 1" style="whiteSpace=wrap;shadow=0;fontColor=#FFFFFF;fontFamily=Helvetica;fontStyle=0;html=1;fontSize=12;plain-purple;strokeColor=none;fillColor=#2f5b7c;gradientColor=none;spacing=6;verticalAlign=middle;" vertex="1" parent="183">
          <mxGeometry x="180" y="61.5" width="120" height="60" as="geometry" />
        </mxCell>
        <mxCell id="q-G5kUrWomw_NDkCvjXE-223" value="Инженер данных ур. 1+" style="whiteSpace=wrap;strokeColor=#9673a6;fillColor=#e1d5e7;shadow=0;fontFamily=Helvetica;fontStyle=0;html=1;fontSize=12;spacing=6;verticalAlign=middle;" vertex="1" parent="183">
          <mxGeometry x="20" y="161.5" width="120" height="28.5" as="geometry" />
        </mxCell>
        <mxCell id="q-G5kUrWomw_NDkCvjXE-224" value="Аналитик данных ур. 1+" style="whiteSpace=wrap;strokeColor=#9673a6;fillColor=#e1d5e7;shadow=0;fontFamily=Helvetica;fontStyle=0;html=1;fontSize=12;spacing=6;verticalAlign=middle;" vertex="1" parent="183">
          <mxGeometry x="20" y="201.5" width="120" height="28.5" as="geometry" />
        </mxCell>
        <mxCell id="q-G5kUrWomw_NDkCvjXE-225" value="Бизнес - аналитик ур. 1+" style="whiteSpace=wrap;strokeColor=#9673a6;fillColor=#e1d5e7;shadow=0;fontFamily=Helvetica;fontStyle=0;html=1;fontSize=12;spacing=6;verticalAlign=middle;" vertex="1" parent="183">
          <mxGeometry x="20" y="241.5" width="120" height="28.5" as="geometry" />
        </mxCell>
        <mxCell id="q-G5kUrWomw_NDkCvjXE-226" value="Разработчик ур. 1+" style="whiteSpace=wrap;strokeColor=#9673a6;fillColor=#e1d5e7;shadow=0;fontFamily=Helvetica;fontStyle=0;html=1;fontSize=12;spacing=6;verticalAlign=middle;" vertex="1" parent="183">
          <mxGeometry x="20" y="281.5" width="120" height="28.5" as="geometry" />
        </mxCell>
        <mxCell id="q-G5kUrWomw_NDkCvjXE-227" value="Инженер данных ур. 1+" style="whiteSpace=wrap;strokeColor=#9673a6;fillColor=#e1d5e7;shadow=0;fontFamily=Helvetica;fontStyle=0;html=1;fontSize=12;spacing=6;verticalAlign=middle;" vertex="1" parent="183">
          <mxGeometry x="180" y="161.5" width="120" height="28.5" as="geometry" />
        </mxCell>
        <mxCell id="q-G5kUrWomw_NDkCvjXE-228" value="Аналитик данных ур. 1+" style="whiteSpace=wrap;strokeColor=#9673a6;fillColor=#e1d5e7;shadow=0;fontFamily=Helvetica;fontStyle=0;html=1;fontSize=12;spacing=6;verticalAlign=middle;" vertex="1" parent="183">
          <mxGeometry x="180" y="201.5" width="120" height="28.5" as="geometry" />
        </mxCell>
        <mxCell id="q-G5kUrWomw_NDkCvjXE-229" value="Бизнес - аналитик ур. 1+" style="whiteSpace=wrap;strokeColor=#9673a6;fillColor=#e1d5e7;shadow=0;fontFamily=Helvetica;fontStyle=0;html=1;fontSize=12;spacing=6;verticalAlign=middle;" vertex="1" parent="183">
          <mxGeometry x="180" y="241.5" width="120" height="28.5" as="geometry" />
        </mxCell>
        <mxCell id="q-G5kUrWomw_NDkCvjXE-230" value="Разработчик ур. 1+" style="whiteSpace=wrap;strokeColor=#9673a6;fillColor=#e1d5e7;shadow=0;fontFamily=Helvetica;fontStyle=0;html=1;fontSize=12;spacing=6;verticalAlign=middle;" vertex="1" parent="183">
          <mxGeometry x="180" y="281.5" width="120" height="28.5" as="geometry" />
        </mxCell>
        <mxCell id="q-G5kUrWomw_NDkCvjXE-232" value="" style="rounded=1;whiteSpace=wrap;html=1;fillColor=none;" vertex="1" parent="183">
          <mxGeometry x="-320" y="55.75" width="800" height="71.5" as="geometry" />
        </mxCell>
        <mxCell id="q-G5kUrWomw_NDkCvjXE-233" value="Бизнес - аналитик ур. 3" style="whiteSpace=wrap;strokeColor=#9673a6;fillColor=#e1d5e7;shadow=0;fontFamily=Helvetica;fontStyle=0;html=1;fontSize=12;spacing=6;verticalAlign=middle;" vertex="1" parent="183">
          <mxGeometry x="330" y="75.13" width="120" height="32.75" as="geometry" />
        </mxCell>
        <mxCell id="q-G5kUrWomw_NDkCvjXE-234" value="Должности и роли" style="text;html=1;align=center;verticalAlign=middle;resizable=0;points=[];autosize=1;strokeColor=none;fillColor=none;" vertex="1" parent="1">
          <mxGeometry x="-70" y="480" width="120" height="20" as="geometry" />
        </mxCell>
      </root>
    </mxGraphModel>
  </diagram>
</mxfile>
